<svg xmlns="http://www.w3.org/2000/svg" viewBox="0 0 128 128" role="img" aria-label="ReaKt">
  <defs>
    <linearGradient id="g" x1="0" x2="1" y1="0" y2="1">
      <stop offset="0" stop-color="#00FFCC"/>
      <stop offset="1" stop-color="#00BFA5"/>
    </linearGradient>
  </defs>
  <!-- Transparent background, simple bioreactor icon -->
  <g fill="url(#g)" stroke="none">
    <!-- Reactor body -->
    <path d="M32 20h64c3 0 6 3 6 6v14c0 12-10 22-22 22H48C36 62 26 52 26 40V26c0-3 3-6 6-6z"/>
    <!-- Neck -->
    <rect x="56" y="8" width="16" height="14" rx="4"/>
    <!-- Base -->
    <rect x="36" y="88" width="56" height="12" rx="6"/>
    <!-- Agitator shaft -->
    <rect x="62" y="40" width="4" height="36" rx="2"/>
    <!-- Aeration bubbles -->
    <circle cx="50" cy="52" r="3"/>
    <circle cx="46" cy="60" r="2.5"/>
    <circle cx="54" cy="60" r="2"/>
    <!-- Level indicator -->
    <rect x="74" y="46" width="18" height="8" rx="4"/>
  </g>
  <!-- Wordmark -->
  <g fill="#0F172A">
    <text x="64" y="118" font-size="20" text-anchor="middle" font-family="Inter, Segoe UI, Roboto, Arial, sans-serif">ReaKt</text>
  </g>
</svg>